HIERARCHY
ROOT Hips
{
	OFFSET	0	0	0
	CHANNELS 6  Xposition Yposition Zposition Xrotation Yrotation Zrotation
	JOINT Spine
	{
		OFFSET	0	6.96085	1.39713
		CHANNELS 3  Xrotation Yrotation Zrotation
		JOINT Spine1
		{
			OFFSET	0	11.9146	-2.1276
			CHANNELS 3  Xrotation Yrotation Zrotation
			JOINT Spine2
			{
				OFFSET	0	9.03168	0.96806
				CHANNELS 3  Xrotation Yrotation Zrotation
				JOINT Spine3
				{
					OFFSET	0	10.8082	3.21268
					CHANNELS 3  Xrotation Yrotation Zrotation
					JOINT Spine4
					{
						OFFSET	0	15.9996	-1.63826
						CHANNELS 3  Xrotation Yrotation Zrotation
						JOINT Neck
						{
							OFFSET	0	7.6381	-5.35092
							CHANNELS 3  Xrotation Yrotation Zrotation
							JOINT Head
							{
								OFFSET	0	9.16998	-2.74461
								CHANNELS 3  Xrotation Yrotation Zrotation
								End Site
								{
									OFFSET	0	19.1272	-0.925508
								}
							}
						}
					}
					JOINT LeftShoulder
					{
						OFFSET	-4.59563	19.4463	-9.16997
						CHANNELS 3  Xrotation Yrotation Zrotation
						JOINT LeftArm
						{
							OFFSET	-10.0457	-2.74461	3.52121
							CHANNELS 3  Xrotation Yrotation Zrotation
							JOINT LeftForeArm
							{
								OFFSET	-31.2362	-1.42567	2.22961
								CHANNELS 3  Xrotation Yrotation Zrotation
								JOINT LeftHand
								{
									OFFSET	-26.6039	-1.83848	1.89896
									CHANNELS 3  Xrotation Yrotation Zrotation
									End Site
									{
										OFFSET	-9.70909	-0.670953	0.692979
									}
								}
							}
						}
					}
					JOINT RightShoulder
					{
						OFFSET	4.59563	19.4463	-9.16997
						CHANNELS 3  Xrotation Yrotation Zrotation
						JOINT RightArm
						{
							OFFSET	10.0457	-2.74461	3.52121
							CHANNELS 3  Xrotation Yrotation Zrotation
							JOINT RightForeArm
							{
								OFFSET	31.2362	-1.42567	2.22961
								CHANNELS 3  Xrotation Yrotation Zrotation
								JOINT RightHand
								{
									OFFSET	26.6039	-1.83848	1.89896
									CHANNELS 3  Xrotation Yrotation Zrotation
									End Site
									{
										OFFSET	9.70909	-0.670953	0.692979
									}
								}
							}
						}
					}
				}
			}
		}
	}
	JOINT LeftUpLeg
	{
		OFFSET	-9.47252	-3.48043	-0.698563
		CHANNELS 3  Xrotation Yrotation Zrotation
		JOINT LeftLeg
		{
			OFFSET	-2.10259	-41.1994	-0.644037
			CHANNELS 3  Xrotation Yrotation Zrotation
			JOINT LeftFoot
			{
				OFFSET	-2.05598	-37.8983	3.25925
				CHANNELS 3  Xrotation Yrotation Zrotation
				JOINT LeftToeBase
				{
					OFFSET	0	-4.64446	-12.3357
					CHANNELS 3  Xrotation Yrotation Zrotation
					End Site
					{
						OFFSET	0	-1.85779	-7.43114
					}
				}
			}
		}
	}
	JOINT RightUpLeg
	{
		OFFSET	9.47252	-3.48043	-0.698563
		CHANNELS 3  Xrotation Yrotation Zrotation
		JOINT RightLeg
		{
			OFFSET	2.10259	-41.1994	-0.644037
			CHANNELS 3  Xrotation Yrotation Zrotation
			JOINT RightFoot
			{
				OFFSET	2.05598	-37.8983	3.25925
				CHANNELS 3  Xrotation Yrotation Zrotation
				JOINT RightToeBase
				{
					OFFSET	0	-4.64446	-12.3357
					CHANNELS 3  Xrotation Yrotation Zrotation
					End Site
					{
						OFFSET	0	-1.85779	-7.43114
					}
				}
			}
		}
	}
}
MOTION
Frames: 18
Frame Time: 0.020408
 0 -9.18316 2.93911 -0 0 -0 -0 0 -0 -0 0 -0 -0 0 -0 -0 0 -0 -0 0 -0 -0 0 -0 -0 0 -0 -0 0 -0 -0 0 -0 -0 0 -0 -0 0 -0 -0 0 -0 -0 0 -0 -0 0 -0 -0 0 -0 -0 0 -0 -0 0 -0 -0 0 -0 -0 0 -0 -0 0 -0 -0 0 -0 -0 0 -0 -0 0 -0
 198.998 88.9575 -174.99 5.88659 51.8448 -11.2876 180 179.999 -178.136 1.73412 0.0010727 3.10592 2.22639 0.00321811 3.10592 2.63324 0.000536857 1.86355 177.132 -179.969 -179.38 171.41 161.123 175.996 176.256 142.118 -176.812 0.206893 15.3041 0.330167 134.978 -129.633 -143.921 58.9874 -25.7234 33.1294 -0 16.6004 -9.52613 1.26251 -4.01473 -2.34102 161.706 118.204 116.625 16.0001 15.6516 -2.61848 -0 9.28789 -4.54146 168.88 165.738 -165.956 173.432 -160.203 179.941 5.04055 -0.0178239 4.35053 11.9246 0 0 176.337 170.809 -171.806 153.206 -162.366 -179.331 11.1933 -0.0842188 3.36168 5.30689 0 0
 199.179 89.0707 -175.012 6.01492 52.447 -11.5048 180 179.993 -178.149 1.63241 0.0135183 3.08436 2.1249 0.0405548 3.08436 2.57037 0.00676542 1.85061 177.087 -179.969 -179.384 171.334 161.574 175.202 176.256 142.346 -177.056 0.170541 15.6633 0.270573 134.435 -128.612 -144.68 59.018 -25.5918 33.0227 -0 16.8252 -9.45641 1.29409 -4.87924 -2.37725 162.991 118.441 116.074 15.972 16.3201 -2.81043 -0 9.2558 -3.83102 169.173 166.141 -165.833 173.484 -160.863 179.921 4.30679 -0.0517855 4.34394 11.9132 0 0 175.838 170.328 -170.751 153.43 -162.991 -179.343 10.0842 -0.0737137 3.18404 5.3016 0 0
 199.232 89.2401 -175.138 6.26187 52.5283 -11.6642 180 179.994 -178.187 1.54166 0.0114245 3.02165 2.0236 0.0342736 3.02165 2.47744 0.00571736 1.81299 177.132 -179.97 -179.396 171.541 161.811 174.496 176.334 142.264 -177.269 0.122057 16.2101 0.191913 133.981 -127.962 -145.613 58.8352 -25.3735 32.6294 -0 16.829 -9.50996 1.13497 -5.57133 -2.06863 163.739 118.6 115.826 16.0396 17.8445 -3.27093 -0 9.23037 -3.39022 169.332 166.6 -165.821 173.645 -161.561 179.909 3.5842 -0.0474029 4.28818 11.9029 0 0 175.466 170.098 -169.414 153.672 -163.548 -179.404 8.38387 -0.0864037 3.034 5.28343 0 0
 199.496 89.3634 -175.111 6.17191 52.7016 -11.611 180 179.992 -178.203 1.46507 0.0163878 2.99471 1.93851 0.0491634 2.99472 2.40249 0.00820107 1.79683 177.163 -179.97 -179.402 171.714 161.812 174.16 176.382 142.017 -177.35 0.128759 16.6276 0.201039 133.486 -127.42 -146.31 58.4442 -25.0041 31.9189 -0 16.835 -9.54755 1.16547 -5.70325 -2.12108 164.272 118.548 116.066 16.0662 19.3608 -3.71699 -0 9.06939 -3.00874 169.515 167.189 -165.965 174.128 -162.131 179.961 3.06077 -0.0786429 4.21537 11.8937 0 0 175.089 170.069 -168.401 154.531 -164.03 -179.672 7.71904 -0.0688159 2.68003 5.27782 0 0
 199.556 89.4198 -174.956 5.97443 52.3282 -11.5979 180 179.996 -178.191 1.39952 0.008273 3.01425 1.85384 0.024819 3.01425 2.29875 0.00414017 1.80855 177.28 -179.971 -179.398 172.135 161.852 173.777 176.525 141.815 -177.487 0.120038 17.188 0.185641 132.72 -126.934 -146.888 58.1865 -24.8421 31.3665 -0 16.809 -9.63211 1.23753 -5.96827 -2.24553 164.793 118.544 116.568 16.0091 21.324 -4.22533 -0 8.99791 -2.47931 169.727 167.867 -165.773 174.406 -162.797 -179.917 2.65501 0.00901827 4.29428 11.8852 0 0 174.703 170.137 -167.643 155.166 -164.391 -179.541 7.22563 -0.0914318 2.38548 5.26782 0 0
 199.731 89.4738 -175.253 6.3476 52.0984 -11.9628 3.49471e-05 -0.00111036 1.80271 1.34428 -0.00221877 3.00452 1.77729 -0.0066563 3.00452 2.19447 -0.00111036 1.80271 177.419 -179.973 -179.4 172.596 161.967 173.489 176.696 141.817 -177.633 179.918 161.917 179.876 132.236 -126.253 -147.407 58.0804 -24.4938 30.9662 -0 16.9502 -9.52675 1.31331 -5.55684 -2.39438 164.164 118.005 117.231 15.823 22.9085 -4.4838 -0 8.75023 -2.2896 169.502 168.713 -166.002 174.67 -163.224 -179.869 2.53879 -0.00978163 4.35334 11.8779 0 0 174.54 170.185 -166.686 155.885 -164.849 -179.419 6.48702 -0.10276 2.14949 5.25961 0 0
 200.072 89.5009 -175.678 6.5201 51.6764 -12.2848 0.000113053 -0.00360089 1.79826 1.28724 -0.00719548 2.99711 1.73885 -0.0215864 2.99711 2.2106 -0.00360089 1.79826 177.273 -179.971 -179.401 172.212 161.947 173.967 176.573 142.139 -177.491 179.775 160.392 179.666 132.713 -125.877 -147.858 58.0166 -24.0674 30.5662 -0 16.8332 -9.26675 1.29016 -5.05133 -2.3655 163.673 117.17 117.889 15.6174 25.343 -4.93546 -0 8.95569 -2.62584 169.446 169.412 -166.229 174.856 -163.565 -179.849 2.40017 0.00615875 4.39785 11.8887 0 0 174.212 170.426 -166.146 156.624 -165.403 -179.52 6.77135 -0.0743086 1.94447 5.26071 0 0
 200.445 89.5374 -176.183 6.78872 51.2685 -12.4848 0.000172638 -0.00549474 1.79957 1.22846 -0.0109798 2.99928 1.686 -0.0329395 2.99928 2.18795 -0.00549474 1.79957 177.215 -179.971 -179.401 172.078 162.033 174.379 176.553 142.611 -177.425 179.452 159.021 179.21 132.911 -125.456 -148.678 58.2522 -23.7346 30.5758 -0 16.7394 -8.94962 1.30581 -4.66187 -2.40452 163.128 116.452 118.441 15.4574 27.2688 -5.32253 -0 9.13123 -2.92562 169.317 170.032 -166.442 175 -163.854 179.846 2.32988 0.0360309 4.34836 11.898 0 0 173.897 170.841 -166.293 157.186 -165.475 -179.714 7.28914 -0.0347594 1.45379 5.26196 0 0
 200.806 89.5303 -176.584 6.98336 51.1496 -12.6016 0.000335828 -0.0106554 1.80521 1.19065 -0.0212919 3.00868 1.65087 -0.0638757 3.00868 2.1673 -0.0106554 1.80521 177.191 -179.971 -179.399 172.014 162.216 174.753 176.569 143.233 -177.4 179.217 158.129 178.89 133.086 -125.075 -149.423 58.6152 -23.3975 30.6227 -0 16.7238 -8.46069 1.34935 -3.96973 -2.50342 163.148 115.827 118.467 15.2783 28.4867 -5.57278 -0 9.18421 -3.23197 168.788 170.764 -166.82 175.539 -164.056 179.783 2.41398 0.00804122 4.25037 11.9059 0 0 173.587 171.178 -166.417 157.678 -165.273 -179.764 7.55945 -0.0163187 0.983009 5.26283 0 0
 201.018 89.4763 -177.038 7.29523 50.5477 -12.7641 0.00014918 -0.00472696 1.80762 1.11159 -0.00944555 3.0127 1.58458 -0.0283366 3.0127 2.15686 -0.00472696 1.80762 177.067 -179.969 -179.398 171.678 162.472 175.27 176.502 144.078 -177.332 178.965 157.255 178.56 133.141 -124.767 -150.061 58.9263 -23.1263 30.5984 -0 16.7362 -8.08437 1.33965 -3.86264 -2.48822 163.821 115.291 117.912 15.0839 29.3551 -5.67537 -0 9.04632 -3.3694 168.426 171.239 -167.197 175.893 -164.516 179.974 3.12836 0.0197924 4.17901 11.9073 0 0 173.304 171.515 -166.523 157.782 -165.046 -179.761 7.76334 -0.0171979 0.420155 5.26396 0 0
 201.282 89.5051 -177.84 7.88975 50.6447 -13.2706 0.000157909 -0.00491871 1.83878 1.05289 -0.0098284 3.06464 1.52169 -0.0294852 3.06464 2.10499 -0.00491871 1.83878 177.077 -179.969 -179.388 171.702 162.951 175.513 176.58 145.147 -177.417 178.874 157.015 178.44 133.396 -124.458 -150.356 59.2536 -22.8076 30.3994 -0 16.875 -7.59011 1.31306 -4.13579 -2.4317 164.544 114.566 116.809 14.8818 29.6985 -5.70658 -0 8.77093 -3.60951 167.746 171.673 -167.73 176.427 -164.841 -179.973 2.91224 -0.040183 4.12186 11.8966 0 0 172.443 172.03 -167.037 157.831 -164.839 -179.733 8.0379 -0.0364473 -0.263071 5.26506 0 0
 201.525 89.558 -178.532 8.3785 50.7936 -13.4749 180 179.999 -178.155 1.00912 0.00244495 3.07461 1.47404 0.00733485 3.07461 2.06835 0.0012236 1.84477 177.08 -179.969 -179.386 171.656 163.821 175.076 176.649 146.409 -177.704 178.747 157.069 178.263 133.538 -124.489 -150.431 59.5083 -22.2769 29.9638 -0 16.9438 -6.89466 1.29282 -5.37236 -2.3619 165.244 114.297 116.113 14.6842 29.8221 -5.73475 -0 8.59154 -4.08466 167.127 172.035 -168.251 176.973 -165.732 179.829 2.56194 -0.149414 3.85393 11.8769 0 0 171.073 172.599 -167.759 159.118 -164.469 -179.605 8.15941 -0.0664755 -0.988473 5.26547 0 0
 201.901 89.6572 -179.415 8.85662 50.5805 -13.6098 5.31753e-05 -0.0016471 1.84911 0.998976 -0.00329115 3.08185 1.46055 -0.00987344 3.08185 2.04957 -0.0016471 1.84911 177.105 -179.969 -179.384 171.62 164.896 174.365 176.73 147.834 -178.087 178.639 157.033 178.114 133.752 -124.467 -150.594 59.7369 -21.5873 29.4324 -0 17.107 -6.06263 1.29139 -6.07746 -2.3404 166.673 113.828 114.477 14.5502 30.1965 -5.75303 -0 8.3533 -4.74987 166.521 172.278 -169.027 177.446 -166.529 179.776 2.05499 -0.113316 3.53975 11.86 0 0 169.732 173.097 -168.622 161.437 -163.719 -179.615 8.40636 -0.0122833 -1.67277 5.26627 0 0
 202.387 89.7726 -180.01 9.11016 50.3238 -13.5004 1.07754e-05 -0.000333162 1.85247 0.989353 -0.000665705 3.08744 1.44918 -0.00199712 3.08744 2.03881 -0.000333162 1.85247 177.112 -179.969 -179.383 171.556 165.752 173.906 176.783 149.05 -178.365 178.535 156.979 177.971 134.083 -124.49 -150.752 59.9184 -21.0213 28.8469 -0 17.0545 -5.45274 1.30545 -6.57125 -2.35233 167.743 113.453 113.548 14.4741 30.525 -5.78973 -0 7.92251 -5.39291 166.058 172.491 -169.845 177.897 -167.07 179.849 1.56939 -0.0719206 3.28207 11.8453 0 0 168.692 173.453 -169.186 163.865 -163.096 -179.738 8.12815 0.00851955 -2.39072 5.26636 0 0
 203.113 89.8505 -180.587 9.38946 50.1737 -13.5273 0.000126338 -0.00388333 1.86336 0.936149 -0.00775937 3.1056 1.41581 -0.0232781 3.1056 2.06039 -0.00388333 1.86336 176.96 -179.967 -179.38 171.1 166.327 173.707 176.681 149.96 -178.488 178.305 157.022 177.651 134.51 -124.436 -150.503 60.246 -20.5582 28.6676 -0 17.0096 -4.81048 1.37129 -6.85954 -2.46269 167.987 113.183 113.217 14.4204 30.8556 -5.7677 -0 7.62523 -5.91372 166.02 172.799 -170.789 178.172 -167.345 -179.963 1.24837 -0.0973715 3.1177 11.8331 0 0 167.972 173.77 -169.812 165.94 -162.981 -179.808 8.18088 -0.023451 -3.12439 5.26676 0 0
 203.807 89.9512 -181.022 9.53205 49.9826 -13.2956 1.01829e-05 -0.000309004 1.88745 0.861455 -0.000617411 3.14575 1.35165 -0.00185223 3.14575 2.04466 -0.000309004 1.88745 176.856 -179.965 -179.372 170.817 166.797 173.498 176.627 150.674 -178.607 178.09 157.138 177.345 135.055 -124.274 -150.255 60.7966 -20.3528 28.9667 -0 17.0082 -4.26949 1.3878 -7.16515 -2.48328 168.186 112.97 112.937 14.3789 31.021 -5.75484 -0 7.3997 -6.35002 166.079 172.957 -171.773 178.372 -167.441 -179.911 0.749432 -0.0361192 2.92591 11.8218 0 0 167.362 173.987 -170.386 167.957 -163.17 -179.977 7.71202 -0.0338545 -3.89954 5.26744 0 0
 204.723 90.0542 -181.761 9.43661 49.7408 -13.0746 9.50576e-05 -0.0028474 1.91205 0.794654 -0.00568915 3.18676 1.30479 -0.0170675 3.18676 2.05815 -0.0028474 1.91205 176.699 -179.963 -179.364 170.396 167.016 173.674 176.512 151.225 -178.586 177.623 157.206 176.69 135.392 -124.214 -150.268 61.3681 -20.2384 29.2323 -0 16.8548 -3.86923 1.401 -7.31532 -2.50239 168.614 112.77 112.67 14.5084 31.8497 -6.05185 -0 7.43254 -6.81206 166.25 173.242 -172.839 178.569 -167.115 -179.792 0.18945 -0.0132394 2.79393 11.8124 0 0 167.01 174.106 -170.839 169.887 -163.464 179.955 7.4335 -0.0330305 -4.57063 5.26761 0 0
